# AST/ASF file generated using VICON BodyLanguage
# -----------------------------------------------
:version 1.10
:name VICON
:units
  mass 1.0
  length 0.45
  angle deg
:documentation
   .ast/.asf automatically generated from VICON data using
   VICON BodyBuilder and BodyLanguage model FoxedUp or BRILLIANT.MOD
:root
   order TX TY TZ RX RY RZ
   axis XYZ
   position 0 0 0  
   orientation 0 0 0 
:bonedata
  begin
     id 1 
     name lhipjoint
     direction 0.612567 -0.751349 0.245431 
     length 2.42285 
     axis 0 0 0  XYZ
  end
  begin
     id 2 
     name lfemur
     direction 0.34202 -0.939693 0  
     length 7.11304  
     axis 0 0 20  XYZ
    dof rx ry rz
    limits (-160.0 20.0)
           (-70.0 70.0)
           (-60.0 70.0)
  end
  begin
     id 3 
     name ltibia
     direction 0.34202 -0.939693 0   
     length 7.84529   
     axis 0 0 20   XYZ
    dof rx
    limits (-10.0 170.0)
  end
  begin
     id 4 
     name lfoot
     direction 0.0779239 -0.214094 0.9737   
     length 1.97176   
     axis -90 7.62852e-016 20   XYZ
    dof rx rz
    limits (-45.0 90.0)
           (-70.0 20.0)
  end
  begin
     id 5 
     name ltoes
     direction 1.53565e-011 -4.21709e-011 1   
     length 0.993197   
     axis -90 7.62852e-016 20   XYZ
    dof rx
    limits (-90.0 20.0)
  end
  begin
     id 6 
     name rhipjoint
     direction -0.665722 -0.709315 0.231701   
     length 2.56642  
     axis 0 0 0  XYZ 
  end
  begin
     id 7 
     name rfemur
     direction -0.34202 -0.939693 0   
     length 7.32108   
     axis 0 0 -20   XYZ
    dof rx ry rz
    limits (-160.0 20.0)
           (-70.0 70.0)
           (-70.0 60.0)
  end
  begin
     id 8 
     name rtibia
     direction -0.34202 -0.939693 0   
     length 7.81254   
     axis 0 0 -20   XYZ
    dof rx
    limits (-10.0 170.0)
 end
 begin
     id 9 
     name rfoot
     direction -0.0832806 -0.228812 0.969902   
     length 2.08278  
     axis -90 -7.62852e-016 -20   XYZ
    dof rx rz
    limits (-45.0 90.0)
           (-20.0 70.0)
  end
  begin
     id 10 
     name rtoes
     direction -1.53589e-011 -4.22086e-011 1   
     length 1.04609   
     axis -90 -7.62852e-016 -20   XYZ
    dof rx
    limits (-90.0 20.0)
  end
  begin
     id 11 
     name lowerback
     direction -0.00506013 0.988403 -0.151766   
     length 2.01978   
     axis 0 0 0   XYZ
    dof rx ry rz
    limits (-20.0 45.0)
           (-30.0 30.0)
           (-30.0 30.0)
  end
  begin
     id 12 
     name upperback
     direction -0.00836389 0.99968 0.0238859   
     length 2.01276   
     axis 0 0 0   XYZ
    dof rx ry rz
    limits (-20.0 45.0)
           (-30.0 30.0)
           (-30.0 30.0)
  end
  begin
     id 13 
     name thorax
     direction -0.00684136 0.995386 0.0957043   
     length 2.07303   
     axis 0 0 0   XYZ
    dof rx ry rz
    limits (-20.0 45.0)
           (-30.0 30.0)
           (-30.0 30.0)
  end
  begin
     id 14 
     name lowerneck
     direction -0.0161045 0.999661 0.0204485   
     length 1.91243   
     axis 0 0 0   XYZ
    dof rx ry rz
    limits (-20.0 45.0)
           (-30.0 30.0)
           (-30.0 30.0)
  end
  begin
     id 15 
     name upperneck
     direction 0.0553583 0.990946 -0.122319   
     length 1.91574   
     axis 0 0 0   XYZ
    dof rx ry rz
    limits (-20.0 45.0)
           (-30.0 30.0)
           (-30.0 30.0)
  end
  begin
     id 16
     name head
     direction 0.0180273 0.998839 -0.0446756  
     length 1.92693  
     axis 0 0 0   XYZ
    dof rx ry rz
    limits (-20.0 45.0)
           (-30.0 30.0)
           (-30.0 30.0)
  end
  begin
     id 17 
     name lclavicle
     direction 0.945646 0.319323 -0.0615358  
     length 4.0076  
     axis 0 0 0   XYZ
    dof ry rz
    limits (-20.0 10.0)
           (0.0 20.0)
  end
  begin
     id 18 
     name lhumerus
     direction 1 -4.48967e-011 -2.79996e-027   
     length 5.64147   
     axis 180 -30 -90   XYZ
    dof rx ry rz
    limits (-60.0 90.0)
           (-90.0 90.0)
           (-90.0 90.0)
  end
  begin
     id 19
     name lradius
     direction 1 -4.48976e-011 -9.5122e-027   
     length 2.86444   
     axis 180 -30 -90   XYZ
    dof rx
    limits (-10.0 170.0)
  end
  begin
     id 20
     name lwrist
     direction 1 -4.48983e-011 -1.24047e-026   
     length 1.43222   
     axis 9.05591e-015 90 90   XYZ
    dof ry
    limits (-180.0 0.0)
 end
  begin
     id 21 
     name lhand
     direction 1 -4.4892e-011 -2.48094e-026   
     length 0.722123   
     axis 1.58305e-014 90 90   XYZ
    dof rx rz
    limits (-90.0 90.0)
           (-45.0 45.0)
  end
  begin
     id 22 
     name lfingers
     direction 1 -4.48895e-011 -4.96187e-026   
     length 0.582194   
     axis 3.1661e-014 90 90   XYZ
    dof rx
    limits (0.0 90.0)
  end
  begin
     id 23
     name lthumb
     direction 0.707107 -6.34961e-011 0.707107   
     length 0.835918   
     axis -90 45 2.85299e-015   XYZ
    dof rx rz
    limits (-45.0 45.0)
           (-45.0 45.0)
  end
  begin
     id 24 
     name rclavicle
     direction -0.932635 0.324218 -0.15835   
     length 3.65819  
     axis 0 0 0   XYZ 
    dof ry rz
    limits (-10.0 20.0)
           (-20.0 0.0)
  end
  begin
     id 25 
     name rhumerus
     direction -1 -4.48965e-011 -4.02296e-027  
     length 5.44729   
     axis 180 30 90   XYZ
    dof rx ry rz
    limits (-90.0 60.0)
           (-90.0 90.0)
           (-90.0 90.0)
  end
  begin
     id 26 
     name rradius
     direction -1 -4.48957e-011 -8.81087e-027   
     length 3.08821   
     axis 180 30 90   XYZ
    dof rx
    limits (-10.0 170.0)
  end
  begin
     id 27 
     name rwrist
     direction -1 -4.49015e-011 -1.24047e-026   
     length 1.5441   
     axis 9.05591e-015 -90 -90   XYZ
    dof ry
    limits (-180.0 0.0)
  end
  begin
     id 28
     name rhand
     direction -1 -4.4891e-011 -2.48094e-026   
     length 0.821049   
     axis 1.58305e-014 -90 -90   XYZ
    dof rx rz
    limits (-90.0 90.0)
           (-45.0 45.0)
  end
  begin
     id 29
     name rfingers
     direction -1 -4.48985e-011 -4.96187e-026   
     length 0.661951   
     axis 3.1661e-014 -90 -90   XYZ
    dof rx
    limits (0.0 90.0)
  end
  begin
     id 30
     name rthumb
     direction -0.707107 -6.34906e-011 0.707107   
     length 0.950433   
     axis -90 -45 -2.85299e-015   XYZ
    dof rx rz
    limits (-45.0 45.0)
           (-45.0 45.0)
  end
:hierarchy
  begin
    root lhipjoint rhipjoint lowerback
    lhipjoint lfemur
    lfemur ltibia
    ltibia lfoot
    lfoot ltoes
    rhipjoint rfemur
    rfemur rtibia
    rtibia rfoot
    rfoot rtoes
    lowerback upperback
    upperback thorax
    thorax lowerneck lclavicle rclavicle
    lowerneck upperneck
    upperneck head
    lclavicle lhumerus
    lhumerus lradius
    lradius lwrist
    lwrist lhand lthumb
    lhand lfingers
    rclavicle rhumerus
    rhumerus rradius
    rradius rwrist
    rwrist rhand rthumb
    rhand rfingers
  end

#!OML:ASF F:\VICON\USERDATA\INSTALL\rory3\rory3.ASF
:FULLY-SPECIFIED
:DEGREES
220
root 3.4377 17.6457 -0.171571 -181.289 85.4162 -178.908
lowerback 5.50563 0.496821 1.77063
upperback -2.28854 0.798384 -0.144556
thorax -5.43972 0.331786 -1.22498
lowerneck -6.02854 -7.00642 -4.79727
upperneck 9.6851 -9.7475 8.11429
head 4.52359 -4.51206 2.67418
rclavicle 1.63842e-014 2.93207e-015
rhumerus -36.7994 -38.0882 -32.2102
rradius 36.1742
rwrist -33.2324
rhand -14.2294 11.3652
rfingers 7.12502
rthumb 11.9079 -18.2761
lclavicle 1.63842e-014 2.93207e-015
lhumerus -21.288 30.1663 52.5589
lradius 26.1803
lwrist 60.1012
lhand -9.96678 5.73116
lfingers 7.12502
lthumb 16.0156 35.0892
rfemur 4.64617 -0.0181367 17.9818
rtibia 13.7475
rfoot -20.9029 -10.085
rtoes -6.35015
lfemur 0.673834 1.52333 -16.9938
ltibia 12.7389
lfoot -9.88453 -7.19657
ltoes -0.164062
221
root 3.4386 17.6458 -0.162644 -181.783 85.2177 -179.39
lowerback 5.53287 0.48167 1.8013
upperback -2.2441 0.783551 -0.0821361
thorax -5.40966 0.325043 -1.17588
lowerneck -6.06697 -7.05569 -4.82203
upperneck 9.65065 -9.80997 8.12516
head 4.52548 -4.5429 2.67577
rclavicle 1.49026e-014 6.75868e-015
rhumerus -37.4833 -38.3451 -32.2289
rradius 35.1753
rwrist -31.9087
rhand -14.075 11.824
rfingers 7.12502
rthumb 12.0568 -17.8087
lclavicle 1.49026e-014 6.75868e-015
lhumerus -21.6621 29.8072 53.0195
lradius 25.1851
lwrist 58.0389
lhand -9.95464 6.11535
lfingers 7.12502
lthumb 16.0273 35.4724
rfemur 4.67438 -0.137802 17.9818
rtibia 13.773
rfoot -20.9001 -10.2223
rtoes -6.9594
lfemur 0.656724 1.52851 -16.9921
ltibia 12.7236
lfoot -9.75998 -7.41807
ltoes -0.272134
222
root 3.44032 17.6448 -0.154495 -181.808 85.0399 -179.414
lowerback 5.51365 0.478355 1.86579
upperback -2.19744 0.787332 0.000954801
thorax -5.35009 0.327136 -1.12559
lowerneck -6.11176 -7.12793 -4.79031
upperneck 9.63539 -9.90071 8.04733
head 4.52886 -4.58997 2.63891
rclavicle 1.79341e-014 -4.87022e-015
rhumerus -38.3484 -38.9201 -31.9962
rradius 34.1413
rwrist -30.2661
rhand -14.1078 12.7787
rfingers 7.12502
rthumb 12.0252 -16.8558
lclavicle 1.79341e-014 -4.87022e-015
lhumerus -22.0776 29.8442 53.4207
lradius 24.0799
lwrist 55.3343
lhand -9.44602 6.33359
lfingers 7.12502
lthumb 16.5171 35.6506
rfemur 4.70447 -0.206198 18.0112
rtibia 13.781
rfoot -21.0594 -10.163
rtoes -6.27453
lfemur 0.618643 1.54894 -16.9518
ltibia 12.7252
lfoot -9.67667 -7.60854
ltoes -0.276249
223
root 3.44216 17.6436 -0.145301 -181.384 84.8737 -178.949
lowerback 5.54073 0.477592 2.0016
upperback -2.15124 0.801575 0.0942897
thorax -5.31643 0.331926 -1.10635
lowerneck -6.00645 -7.18656 -4.80185
upperneck 9.45363 -9.96473 7.98893
head 4.45754 -4.63247 2.62432
rclavicle -1.39398e-014 -7.15625e-015
rhumerus -39.2082 -39.3505 -31.8766
rradius 33.4214
rwrist -29.3096
rhand -14.3021 12.9065
rfingers 7.12502
rthumb 11.8378 -16.7389
lclavicle -1.39398e-014 -7.15625e-015
lhumerus -22.5755 29.7342 53.8608
lradius 23.0815
lwrist 52.5432
lhand -8.49988 6.32509
lfingers 7.12502
lthumb 17.4278 35.5638
rfemur 4.78173 -0.242732 18.1052
rtibia 13.774
rfoot -21.2259 -10.1712
rtoes -5.84356
lfemur 0.60986 1.55719 -16.8526
ltibia 12.7545
lfoot -9.60532 -7.77705
ltoes 0.166328
224
root 3.44454 17.6427 -0.137185 -181.439 84.7253 -178.963
lowerback 5.54709 0.490705 2.10173
upperback -2.07897 0.830102 0.178776
thorax -5.24346 0.34548 -1.07726
lowerneck -5.94463 -7.24005 -4.80982
upperneck 9.24814 -10.0206 7.93485
head 4.38582 -4.67013 2.61
rclavicle 7.51655e-015 -4.57205e-015
rhumerus -39.9646 -39.6546 -31.9329
rradius 32.89
rwrist -28.9433
rhand -14.7054 12.2474
rfingers 7.12502
rthumb 11.4489 -17.42
lclavicle 7.51655e-015 -4.57205e-015
lhumerus -23.0889 29.529 54.4094
lradius 22.3841
lwrist 50.379
lhand -8.19743 6.50337
lfingers 7.12502
lthumb 17.7189 35.7161
rfemur 4.86409 -0.30544 18.1407
rtibia 13.7672
rfoot -21.2494 -10.2192
rtoes -6.00236
lfemur 0.631316 1.49625 -16.821
ltibia 12.7758
lfoot -9.6326 -7.84151
ltoes -0.0656159
225
root 3.44786 17.6428 -0.128666 -181.894 84.5964 -179.407
lowerback 5.49987 0.515525 2.12326
upperback -2.00288 0.866755 0.264389
thorax -5.13676 0.366182 -1.00301
lowerneck -5.95606 -7.30132 -4.84716
upperneck 9.1038 -10.0899 7.91744
head 4.34928 -4.71004 2.60698
rclavicle -7.04443e-015 3.57812e-015
rhumerus -40.6581 -39.7638 -32.1406
rradius 32.4669
rwrist -29.0495
rhand -15.1549 11.7241
rfingers 7.12502
rthumb 11.0154 -17.9669
lclavicle -7.04443e-015 3.57812e-015
lhumerus -23.6043 29.1291 55.062
lradius 21.8913
lwrist 48.8068
lhand -8.13072 6.85552
lfingers 7.12502
lthumb 17.7831 36.0624
rfemur 4.91456 -0.317724 18.143
rtibia 13.7788
rfoot -21.2771 -10.3397
rtoes -6.24226
lfemur 0.649223 1.48663 -16.8395
ltibia 12.759
lfoot -9.61714 -7.89576
ltoes -0.111853
226
root 3.45117 17.6432 -0.12153 -182.718 84.4245 -180.252
lowerback 5.4593 0.516526 2.1521
upperback -1.95694 0.871461 0.323433
thorax -5.06603 0.369784 -0.95761
lowerneck -5.95876 -7.33811 -4.90301
upperneck 8.97107 -10.1268 7.91454
head 4.31439 -4.7337 2.61381
rclavicle -3.90115e-015 -8.74653e-015
rhumerus -41.4278 -39.9631 -32.3323
rradius 32.1289
rwrist -29.0476
rhand -15.4709 11.3475
rfingers 7.12502
rthumb 10.7106 -18.3594
lclavicle -3.90115e-015 -8.74653e-015
lhumerus -24.1691 28.7749 55.6687
lradius 21.3335
lwrist 47.1412
lhand -7.66124 6.93428
lfingers 7.12502
lthumb 18.2348 36.0996
rfemur 4.9008 -0.3175 18.1008
rtibia 13.8624
rfoot -21.4212 -10.4317
rtoes -5.9626
lfemur 0.680381 1.35287 -16.9182
ltibia 12.6397
lfoot -9.5777 -7.89813
ltoes 0.0545682
227
root 3.45487 17.6437 -0.114964 -183.518 84.2227 -181.065
lowerback 5.44095 0.526086 2.23269
upperback -1.9208 0.889434 0.330447
thorax -5.01631 0.377039 -0.996797
lowerneck -5.89269 -7.39272 -4.84659
upperneck 8.76641 -10.193 7.89149
head 4.24142 -4.77197 2.59869
rclavicle -3.70236e-015 0
rhumerus -42.3334 -40.2468 -32.4646
rradius 31.8027
rwrist -28.932
rhand -15.907 11.032
rfingers 7.12502
rthumb 10.2898 -18.6963
lclavicle -3.70236e-015 0
lhumerus -24.677 28.2763 56.3113
lradius 20.7925
lwrist 45.8348
lhand -7.29811 6.92354
lfingers 7.12502
lthumb 18.5841 36.0558
rfemur 4.88862 -0.416038 18.0364
rtibia 13.9608
rfoot -21.5323 -10.4909
rtoes -5.95399
lfemur 0.723185 1.30152 -16.9894
ltibia 12.4947
lfoot -9.47114 -8.01114
ltoes -0.0447003
228
root 3.45799 17.643 -0.108343 -185.413 84.0235 -182.978
lowerback 5.40955 0.525071 2.15798
upperback -1.88587 0.880974 0.333094
thorax -4.96322 0.376018 -0.950704
lowerneck -5.90161 -7.45599 -4.75195
upperneck 8.70135 -10.2686 7.7422
head 4.21525 -4.81538 2.53411
rclavicle 6.98231e-015 2.38542e-015
rhumerus -43.2057 -40.5192 -32.5758
rradius 31.3778
rwrist -28.4101
rhand -16.1909 10.833
rfingers 7.12502
rthumb 10.016 -18.9087
lclavicle 6.98231e-015 2.38542e-015
lhumerus -25.2467 27.5788 57.0591
lradius 20.4214
lwrist 45.2377
lhand -7.17219 7.10035
lfingers 7.12502
lthumb 18.7052 36.221
rfemur 4.91301 -0.56843 17.8205
rtibia 13.9955
rfoot -21.6006 -10.4259
rtoes -5.88811
lfemur 0.732682 1.25182 -17.1912
ltibia 12.4144
lfoot -9.36165 -8.12582
ltoes 0.115307
229
root 3.46094 17.6427 -0.100141 -186.075 83.8801 -183.652
lowerback 5.44539 0.54396 2.16781
upperback -1.90978 0.911273 0.385787
thorax -5.00836 0.391101 -0.905134
lowerneck -5.81268 -7.5211 -4.69771
upperneck 8.65614 -10.3486 7.61643
head 4.18223 -4.86255 2.4862
rclavicle -8.77137e-015 5.56597e-015
rhumerus -44.2138 -40.7031 -32.5733
rradius 30.8928
rwrist -27.4757
rhand -16.0148 10.8465
rfingers 7.12502
rthumb 10.1859 -18.8869
lclavicle -8.77137e-015 5.56597e-015
lhumerus -25.8654 27.0128 57.7726
lradius 19.9929
lwrist 44.5636
lhand -7.17319 7.32357
lfingers 7.12502
lthumb 18.7043 36.4443
rfemur 4.96126 -0.61382 17.7706
rtibia 13.9515
rfoot -21.6265 -10.5036
rtoes -6.03991
lfemur 0.684575 1.24076 -17.245
ltibia 12.4512
lfoot -9.34748 -8.24073
ltoes 0.0602246
230
root 3.46266 17.6429 -0.0893278 -184.138 83.753 -181.697
lowerback 5.58531 0.543183 2.47168
upperback -1.98124 0.946365 0.510271
thorax -5.15964 0.399156 -0.952225
lowerneck -5.70124 -7.5528 -4.78509
upperneck 8.64867 -10.3909 7.67691
head 4.17187 -4.88547 2.51935
rclavicle -7.70291e-016 6.36111e-015
rhumerus -45.0046 -40.5563 -32.9025
rradius 30.4412
rwrist -26.9537
rhand -16.0733 10.9211
rfingers 7.12502
rthumb 10.1294 -18.8151
lclavicle -7.70291e-016 6.36111e-015
lhumerus -26.5951 26.3582 58.4828
lradius 19.6903
lwrist 44.0116
lhand -7.07693 7.44938
lfingers 7.12502
lthumb 18.7968 36.5612
rfemur 5.02057 -0.585403 18.0725
rtibia 13.8922
rfoot -21.6613 -10.772
rtoes -6.56534
lfemur 0.625561 1.09117 -16.9854
ltibia 12.5349
lfoot -9.3718 -8.25191
ltoes 0.130169
231
root 3.46368 17.6412 -0.0806785 -182.317 83.5901 -179.868
lowerback 5.68091 0.527784 2.80656
upperback -2.0184 0.962241 0.609252
thorax -5.2497 0.396854 -1.04039
lowerneck -5.62033 -7.58088 -4.82275
upperneck 8.58896 -10.4309 7.75611
head 4.14909 -4.90504 2.55029
rclavicle -1.27222e-014 -5.96354e-015
rhumerus -45.6265 -40.2499 -33.5128
rradius 30.0802
rwrist -26.4765
rhand -16.1646 10.8247
rfingers 7.12502
rthumb 10.0413 -18.9157
lclavicle -1.27222e-014 -5.96354e-015
lhumerus -27.3274 25.9007 59.1767
lradius 19.5988
lwrist 43.5049
lhand -7.11561 7.7419
lfingers 7.12502
lthumb 18.7596 36.8573
rfemur 5.08379 -0.646617 18.3373
rtibia 13.8213
rfoot -21.6994 -10.8312
rtoes -6.23723
lfemur 0.534508 0.995457 -16.735
ltibia 12.647
lfoot -9.37358 -8.31666
ltoes 0.0188682
